REM DIRINDEX 1\2\3,1\2\4,1\2\5,1\2\6
REM DIRNAME cjc157,folder01,folder02,folder03,folder04,folder05
TITLE ""
FILE "097 097.mp3" MP3
  TRACK 01 AUDIO
    TITLE "0:"
    INDEX 01 00:00:00
  TRACK 02 AUDIO
    TITLE "3:cjc157_3656"
    INDEX 01 00:00:11
  TRACK 03 AUDIO
    TITLE "0:"
    INDEX 01 00:01:30
  TRACK 04 AUDIO
    TITLE "4:cjc157_3657"
    INDEX 01 00:02:04
  TRACK 05 AUDIO
    TITLE "0:"
    INDEX 01 00:03:33
  TRACK 06 AUDIO
    TITLE "5:cjc157_3658"
    INDEX 01 00:04:11
  TRACK 07 AUDIO
    TITLE "0:"
    INDEX 01 00:06:41
  TRACK 08 AUDIO
    TITLE "5:cjc157_3659"
    INDEX 01 00:07:11
  TRACK 09 AUDIO
    TITLE "0:"
    INDEX 01 00:09:18
  TRACK 10 AUDIO
    TITLE "3:cjc157_3660"
    INDEX 01 00:09:69
  TRACK 11 AUDIO
    TITLE "0:"
    INDEX 01 00:11:29
  TRACK 12 AUDIO
    TITLE "4:cjc157_3661"
    INDEX 01 00:12:01
  TRACK 13 AUDIO
    TITLE "0:"
    INDEX 01 00:13:26
  TRACK 14 AUDIO
    TITLE "5:cjc157_3662"
    INDEX 01 00:13:73
  TRACK 15 AUDIO
    TITLE "0:"
    INDEX 01 00:16:00
  TRACK 16 AUDIO
    TITLE "3:cjc157_3663"
    INDEX 01 00:16:48
  TRACK 17 AUDIO
    TITLE "0:"
    INDEX 01 00:17:51
  TRACK 18 AUDIO
    TITLE "4:cjc157_3664"
    INDEX 01 00:18:27
  TRACK 19 AUDIO
    TITLE "0:"
    INDEX 01 00:19:22
  TRACK 20 AUDIO
    TITLE "5:cjc157_3665"
    INDEX 01 00:19:71
  TRACK 21 AUDIO
    TITLE "0:"
    INDEX 01 00:22:05
  TRACK 22 AUDIO
    TITLE "5:cjc157_3666"
    INDEX 01 00:22:54
  TRACK 23 AUDIO
    TITLE "0:"
    INDEX 01 00:24:55
  TRACK 24 AUDIO
    TITLE "5:cjc157_3667"
    INDEX 01 00:25:25
  TRACK 25 AUDIO
    TITLE "0:"
    INDEX 01 00:27:24
  TRACK 26 AUDIO
    TITLE "3:cjc157_3668"
    INDEX 01 00:27:71
  TRACK 27 AUDIO
    TITLE "0:"
    INDEX 01 00:29:03
  TRACK 28 AUDIO
    TITLE "4:cjc157_3669"
    INDEX 01 00:29:50
  TRACK 29 AUDIO
    TITLE "0:"
    INDEX 01 00:30:65
  TRACK 30 AUDIO
    TITLE "5:cjc157_3670"
    INDEX 01 00:31:37
  TRACK 31 AUDIO
    TITLE "0:"
    INDEX 01 00:33:28
  TRACK 32 AUDIO
    TITLE "5:cjc157_3671"
    INDEX 01 00:33:73
  TRACK 33 AUDIO
    TITLE "0:"
    INDEX 01 00:36:13
  TRACK 34 AUDIO
    TITLE "3:cjc157_3672"
    INDEX 01 00:36:58
  TRACK 35 AUDIO
    TITLE "0:"
    INDEX 01 00:37:63
  TRACK 36 AUDIO
    TITLE "4:cjc157_3673"
    INDEX 01 00:38:35
  TRACK 37 AUDIO
    TITLE "0:"
    INDEX 01 00:39:52
  TRACK 38 AUDIO
    TITLE "5:cjc157_3674"
    INDEX 01 00:40:23
  TRACK 39 AUDIO
    TITLE "0:"
    INDEX 01 00:42:08
  TRACK 40 AUDIO
    TITLE "5:cjc157_3675"
    INDEX 01 00:42:53
  TRACK 41 AUDIO
    TITLE "0:"
    INDEX 01 00:44:73
  TRACK 42 AUDIO
    TITLE "3:cjc157_3676"
    INDEX 01 00:45:39
  TRACK 43 AUDIO
    TITLE "0:"
    INDEX 01 00:46:54
  TRACK 44 AUDIO
    TITLE "4:cjc157_3677"
    INDEX 01 00:47:30
  TRACK 45 AUDIO
    TITLE "0:"
    INDEX 01 00:48:36
  TRACK 46 AUDIO
    TITLE "5:cjc157_3678"
    INDEX 01 00:49:02
  TRACK 47 AUDIO
    TITLE "0:"
    INDEX 01 00:51:26
  TRACK 48 AUDIO
    TITLE "5:cjc157_3679"
    INDEX 01 00:52:00
  TRACK 49 AUDIO
    TITLE "0:"
    INDEX 01 00:54:13
  TRACK 50 AUDIO
    TITLE "3:cjc157_3680"
    INDEX 01 00:54:58
  TRACK 51 AUDIO
    TITLE "0:"
    INDEX 01 00:55:67
  TRACK 52 AUDIO
    TITLE "4:cjc157_3681"
    INDEX 01 00:56:35
  TRACK 53 AUDIO
    TITLE "0:"
    INDEX 01 00:57:45
  TRACK 54 AUDIO
    TITLE "5:cjc157_3682"
    INDEX 01 00:58:11
  TRACK 55 AUDIO
    TITLE "0:"
    INDEX 01 01:00:13
  TRACK 56 AUDIO
    TITLE "5:cjc157_3683"
    INDEX 01 01:00:59
  TRACK 57 AUDIO
    TITLE "0:"
    INDEX 01 01:03:00
  TRACK 58 AUDIO
    TITLE "3:cjc157_3684"
    INDEX 01 01:03:49
  TRACK 59 AUDIO
    TITLE "0:"
    INDEX 01 01:04:68
  TRACK 60 AUDIO
    TITLE "4:cjc157_3685"
    INDEX 01 01:05:38
  TRACK 61 AUDIO
    TITLE "0:"
    INDEX 01 01:06:73
  TRACK 62 AUDIO
    TITLE "5:cjc157_3686"
    INDEX 01 01:07:43
  TRACK 63 AUDIO
    TITLE "0:"
    INDEX 01 01:11:31
  TRACK 64 AUDIO
    TITLE "5:cjc157_3687"
    INDEX 01 01:12:05
  TRACK 65 AUDIO
    TITLE "0:"
    INDEX 01 01:13:38
  TRACK 66 AUDIO
    TITLE "3:cjc157_3688"
    INDEX 01 01:14:08
  TRACK 67 AUDIO
    TITLE "0:"
    INDEX 01 01:15:29
  TRACK 68 AUDIO
    TITLE "4:cjc157_3689"
    INDEX 01 01:15:74
  TRACK 69 AUDIO
    TITLE "0:"
    INDEX 01 01:17:22
  TRACK 70 AUDIO
    TITLE "5:cjc157_3690"
    INDEX 01 01:17:67
  TRACK 71 AUDIO
    TITLE "0:"
    INDEX 01 01:19:72
  TRACK 72 AUDIO
    TITLE "5:cjc157_3691"
    INDEX 01 01:20:38
  TRACK 73 AUDIO
    TITLE "0:"
    INDEX 01 01:22:37
  TRACK 74 AUDIO
    TITLE "5:cjc157_3692"
    INDEX 01 01:23:07
  TRACK 75 AUDIO
    TITLE "0:"
    INDEX 01 01:24:55
  TRACK 76 AUDIO
    TITLE "3:cjc157_3693"
    INDEX 01 01:25:27
  TRACK 77 AUDIO
    TITLE "0:"
    INDEX 01 01:26:38
  TRACK 78 AUDIO
    TITLE "4:cjc157_3694"
    INDEX 01 01:27:08
  TRACK 79 AUDIO
    TITLE "0:"
    INDEX 01 01:28:29
  TRACK 80 AUDIO
    TITLE "5:cjc157_3695"
    INDEX 01 01:29:03
  TRACK 81 AUDIO
    TITLE "0:"
    INDEX 01 01:31:65
  TRACK 82 AUDIO
    TITLE "5:cjc157_3696"
    INDEX 01 01:32:33
  TRACK 83 AUDIO
    TITLE "0:"
    INDEX 01 01:34:30
